HIERARCHY
ROOT Hips
{
	OFFSET -0.001795 -0.223333 0.028219
	CHANNELS 6 Xposition Yposition Zposition Zrotation Yrotation Xrotation 
	JOINT LeftUpLeg
	{
		OFFSET 0.069520 -0.091406 -0.006815
		CHANNELS 3 Zrotation Yrotation Xrotation
		JOINT LeftLeg
		{
			OFFSET 0.034277 -0.375199 -0.004496
			CHANNELS 3 Zrotation Yrotation Xrotation
			JOINT LeftFoot
			{
				OFFSET -0.013596 -0.397961 -0.043693
				CHANNELS 3 Zrotation Yrotation Xrotation
				JOINT LeftToe
				{
					OFFSET 0.026358 -0.055791 0.119288
					CHANNELS 3 Zrotation Yrotation Xrotation
					End Site
					{
						OFFSET 0.000000 0.000000 0.000000
					}
				}
			}
		}
	}
	JOINT RightUpLeg
	{
		OFFSET -0.067670 -0.090522 -0.004320
		CHANNELS 3 Zrotation Yrotation Xrotation
		JOINT RightLeg
		{
			OFFSET -0.038290 -0.382569 -0.008850
			CHANNELS 3 Zrotation Yrotation Xrotation
			JOINT RightFoot
			{
				OFFSET 0.015774 -0.398415 -0.042312
				CHANNELS 3 Zrotation Yrotation Xrotation
				JOINT RightToe
				{
					OFFSET -0.025372 -0.048144 0.123348
					CHANNELS 3 Zrotation Yrotation Xrotation
					End Site
					{
						OFFSET 0.000000 0.000000 0.000000
					}
				}
			}
		}
	}
	JOINT Spine
	{
		OFFSET -0.002533 0.108963 -0.026696
		CHANNELS 3 Zrotation Yrotation Xrotation
		JOINT Spine1
		{
			OFFSET 0.005487 0.135180 0.001092
			CHANNELS 3 Zrotation Yrotation Xrotation
			JOINT Spine2
			{
				OFFSET 0.001457 0.052922 0.025425
				CHANNELS 3 Zrotation Yrotation Xrotation
				JOINT Neck
				{
					OFFSET -0.002778 0.213870 -0.042857
					CHANNELS 3 Zrotation Yrotation Xrotation
					JOINT Head
					{
						OFFSET 0.005152 0.064970 0.051349
						CHANNELS 3 Zrotation Yrotation Xrotation
						End Site
						{
							OFFSET 0.000000 0.000000 0.000000
						}
					}
				}
				JOINT LeftShoulder
				{
					OFFSET 0.078845 0.121749 -0.034090
					CHANNELS 3 Zrotation Yrotation Xrotation
					JOINT LeftArm
					{
						OFFSET 0.090977 0.030469 -0.008868
						CHANNELS 3 Zrotation Yrotation Xrotation
						JOINT LeftForeArm
						{
							OFFSET 0.259612 -0.012772 -0.027456
							CHANNELS 3 Zrotation Yrotation Xrotation
							JOINT LeftHand
							{
								OFFSET 0.249234 0.008986 -0.001171
								CHANNELS 3 Zrotation Yrotation Xrotation
								End Site
								{
									OFFSET 0.000000 0.000000 0.000000
								}
							}
						}
					}
				}
				JOINT RightShoulder
				{
					OFFSET -0.081759 0.118833 -0.038615
					CHANNELS 3 Zrotation Yrotation Xrotation
					JOINT RightArm
					{
						OFFSET -0.096012 0.032551 -0.009143
						CHANNELS 3 Zrotation Yrotation Xrotation
						JOINT RightForeArm
						{
							OFFSET -0.253742 -0.013329 -0.021401
							CHANNELS 3 Zrotation Yrotation Xrotation
							JOINT RightHand
							{
								OFFSET -0.255298 0.007772 -0.005559
								CHANNELS 3 Zrotation Yrotation Xrotation
								End Site
								{
									OFFSET 0.000000 0.000000 0.000000
								}
							}
						}
					}
				}
			}
		}
	}
}
MOTION
Frames: 7
Frame Time: 0.050000
0.026225 0.956642 -0.018883 -1.736037 24.490221 1.912376 7.931571 -0.633768 3.673692 -5.975137 0.027851 -7.156531 2.017914 11.168730 15.404516 0.000000 0.000000 0.000000 -6.382176 -0.196493 -1.109653 5.478663 -0.905848 -1.501241 -4.216824 -9.994366 18.222048 0.000000 0.000000 0.000000 8.491173 -0.169211 -0.929691 -6.371134 2.799392 -16.865295 -0.708040 8.552455 31.194446 14.034544 -5.908880 -15.985848 0.000000 0.000000 0.000000 -11.010674 -3.162823 -3.105014 -48.445997 5.763303 -10.002757 -18.654662 -37.810607 5.232030 0.000000 0.000000 0.000000 20.824345 -7.379566 0.544610 40.569984 28.380670 1.718223 -1.878088 44.521835 4.386920 0.000000 0.000000 0.000000 
0.025878 0.956406 -0.019522 -1.699152 24.115759 1.998602 7.863720 -0.617844 3.679480 -5.983542 0.030399 -7.266366 2.211056 11.407719 15.448560 0.000000 0.000000 0.000000 -6.605726 -0.195972 -1.224644 5.983645 -1.001320 -0.799767 -3.967814 -9.627433 16.215431 0.000000 0.000000 0.000000 8.620455 -0.188236 -0.805842 -6.482087 2.809153 -17.134158 -0.782345 8.492903 30.996514 13.754984 -5.769094 -15.837638 0.000000 0.000000 0.000000 -11.122112 -3.130236 -3.097795 -47.499788 6.240441 -9.884154 -21.398343 -39.259206 6.354645 0.000000 0.000000 0.000000 20.684199 -7.359292 0.446777 40.238717 28.257260 1.676351 -0.204831 45.127908 5.078482 0.000000 0.000000 0.000000 
0.025434 0.956367 -0.020137 -1.730578 23.759839 1.974103 7.791401 -0.601164 3.699047 -5.849887 0.042415 -7.249355 2.396376 11.636763 15.477527 0.000000 0.000000 0.000000 -6.581201 -0.183334 -1.314309 5.965614 -0.992278 -0.801253 -3.809938 -9.384363 16.161837 0.000000 0.000000 0.000000 8.678892 -0.211668 -0.582902 -6.310907 2.742908 -17.522628 -0.977086 8.694694 30.875662 13.812100 -5.871916 -15.630328 0.000000 0.000000 0.000000 -10.965711 -3.100283 -3.064162 -47.039876 6.637332 -9.887698 -24.620959 -40.988075 7.709253 0.000000 0.000000 0.000000 20.475334 -7.621331 0.226918 40.179689 28.302798 1.751817 1.589668 45.765223 5.919978 0.000000 0.000000 0.000000 
0.024897 0.956267 -0.020608 -1.654747 23.222793 2.033949 7.700318 -0.576239 3.545378 -5.887692 0.067403 -6.944705 2.679795 11.977633 15.498192 0.000000 0.000000 0.000000 -6.790992 -0.178203 -1.457929 6.159016 -1.015997 -0.823651 -3.551325 -8.991043 16.057889 0.000000 0.000000 0.000000 8.797019 -0.221444 -0.531891 -6.321256 2.731361 -17.645905 -1.135516 8.427450 30.576181 13.502334 -5.704205 -15.631933 0.000000 0.000000 0.000000 -11.238648 -3.017080 -3.072005 -46.214068 7.047960 -9.761077 -28.265884 -42.504760 9.428139 0.000000 0.000000 0.000000 20.144855 -7.297608 0.219969 40.134279 28.764347 2.013676 2.757859 46.037918 6.356960 0.000000 0.000000 0.000000 
0.024152 0.956017 -0.020975 -1.663726 22.833744 1.928410 7.623112 -0.560331 3.770882 -5.748620 0.072089 -7.089800 2.878899 12.216447 15.533180 0.000000 0.000000 0.000000 -6.751233 -0.175095 -1.330328 6.118232 -0.997490 -1.025615 -3.370796 -8.716324 15.942478 0.000000 0.000000 0.000000 8.876259 -0.231540 -0.422825 -6.286762 2.701368 -18.008985 -1.143703 8.446880 30.564779 13.398796 -5.696639 -15.485596 0.000000 0.000000 0.000000 -11.337445 -3.173050 -2.997421 -45.667896 7.218453 -9.652084 -31.317274 -44.277003 11.047223 0.000000 0.000000 0.000000 20.032045 -7.042143 0.311548 40.115464 29.347157 2.255388 3.221109 46.225515 6.540509 0.000000 0.000000 0.000000 
0.023191 0.955820 -0.021311 -1.705100 22.230943 1.813313 7.694017 -0.557255 4.005649 -5.825961 0.078458 -7.198491 3.183104 12.592620 15.642172 0.000000 0.000000 0.000000 -6.783753 -0.171583 -1.212754 6.258496 -1.004750 -1.280255 -3.069257 -8.256936 15.849259 0.000000 0.000000 0.000000 9.174447 -0.258103 -0.251693 -6.448799 2.732372 -18.087533 -1.211227 8.371524 30.455316 13.255515 -5.584077 -15.683039 0.000000 0.000000 0.000000 -11.699015 -3.280057 -2.971417 -44.903852 6.774160 -9.241390 -34.169796 -46.159833 12.827345 0.000000 0.000000 0.000000 20.338770 -6.557038 0.555834 39.972011 30.389153 2.583239 3.094693 46.213517 6.385105 0.000000 0.000000 0.000000 
0.021996 0.955493 -0.021645 -1.645830 21.572322 1.686504 7.616229 -0.536178 4.423236 -5.808132 0.079044 -7.521262 3.493421 12.982922 15.802819 0.000000 0.000000 0.000000 -6.819988 -0.168429 -1.078524 6.247989 -0.987024 -1.489133 -2.764072 -7.790625 15.652625 0.000000 0.000000 0.000000 9.210703 -0.297823 0.160643 -6.422592 2.707498 -18.304797 -1.194929 8.546956 30.262263 13.070659 -5.326945 -16.110048 0.000000 0.000000 0.000000 -12.152874 -3.622382 -2.919777 -43.969977 6.421278 -8.792994 -36.197874 -48.265120 14.427018 0.000000 0.000000 0.000000 20.526118 -6.200025 0.747961 40.281192 31.185192 2.941825 2.640694 46.507425 6.221945 0.000000 0.000000 0.000000 
